#!OML:ASF X:\für Bonn\!DataBase\2005_08_12_Daniel\c3d\Daniel.ASF
:FULLY-SPECIFIED
:DEGREES
2900
root -2.86245 13.5654 -2.79951 321.609 -81.9726 -339.088
lowerback 37.1198 -3.72882 -0.353375
upperback 3.53911 -5.89472 -2.73451
thorax -14.8125 -2.8391 -0.121003
lowerneck -0.12802 1.84208 -3.96726
upperneck 1.28855 2.46206 0.568341
head 0.35806 1.21149 0.83514
rclavicle 3.86636e-014 7.95139e-016
rhumerus 64.9194 -1.53581 -101.29
rradius 8.27345
rwrist 69.4159
rhand -17.9626 12.3542
rfingers 7.12502
rthumb 8.30646 -17.4625
lclavicle 3.86636e-014 7.95139e-016
lhumerus 67.1391 -2.21637 87.5095
lradius 10.0757
lwrist -59.0799
lhand -14.8208 3.2402
lfingers 7.12502
lthumb 11.3376 32.9137
rfemur -25.5056 -29.115 -5.2471
rtibia 92.2858
rfoot -18.0009 28.8394
rtoes -2.76886
lfemur -34.9418 14.7101 -10.7793
ltibia 89.1309
lfoot -19.2884 -35.4576
ltoes 10.8137
2901
root -2.86977 13.746 -2.79914 321.837 -81.9336 -338.921
lowerback 36.489 -3.72906 -0.374112
upperback 3.50206 -5.8818 -2.74838
thorax -14.7303 -2.82972 -0.136046
lowerneck -0.037816 1.83781 -3.98447
upperneck 1.25748 2.45192 0.583643
head 0.333479 1.20671 0.841426
rclavicle 1.93815e-014 8.34896e-015
rhumerus 65.1747 -1.41978 -101.255
rradius 7.8334
rwrist 69.3238
rhand -17.8223 12.1197
rfingers 7.12502
rthumb 8.44182 -17.6916
lclavicle 1.93815e-014 8.34896e-015
lhumerus 66.9368 -1.97285 88.1643
lradius 9.96878
lwrist -59.6165
lhand -14.7627 3.48721
lfingers 7.12502
lthumb 11.3936 33.1577
rfemur -24.787 -28.4188 -4.36701
rtibia 90.1562
rfoot -18.8632 27.6656
rtoes -3.52722
lfemur -33.9728 14.1741 -11.2327
ltibia 87.072
lfoot -20.0493 -34.6447
ltoes 10.2083
2902
root -2.87708 13.922 -2.79856 322.045 -81.8923 -338.728
lowerback 35.9332 -3.72137 -0.431756
upperback 3.37522 -5.86711 -2.71468
thorax -14.6552 -2.81617 -0.0992211
lowerneck 0.0510162 1.83718 -4.03292
upperneck 1.25345 2.44691 0.553821
head 0.317474 1.2036 0.839202
rclavicle 7.33515e-014 1.59028e-015
rhumerus 65.2511 -1.28052 -101.17
rradius 7.55363
rwrist 69.2613
rhand -17.6565 11.8739
rfingers 7.12502
rthumb 8.60187 -17.9309
lclavicle 7.33515e-014 1.59028e-015
lhumerus 66.7056 -1.6638 88.852
lradius 9.91073
lwrist -60.2054
lhand -14.6615 3.70823
lfingers 7.12502
lthumb 11.4912 33.3733
rfemur -24.0634 -27.7401 -3.54431
rtibia 88.026
rfoot -19.62 26.5143
rtoes -4.15301
lfemur -33.0367 13.6499 -11.6787
ltibia 85.0254
lfoot -20.712 -33.7994
ltoes 9.65145
2903
root -2.88522 14.0958 -2.79857 322.239 -81.8637 -338.562
lowerback 35.4 -3.71499 -0.45963
upperback 3.27218 -5.84998 -2.71608
thorax -14.5647 -2.8055 -0.116991
lowerneck 0.164817 1.83311 -4.03386
upperneck 1.19242 2.43579 0.550007
head 0.280278 1.19872 0.836311
rclavicle -2.23633e-015 -8.74653e-015
rhumerus 65.1982 -1.22667 -101.111
rradius 7.4373
rwrist 69.1304
rhand -17.4583 11.6881
rfingers 7.12502
rthumb 8.7931 -18.1087
lclavicle -2.23633e-015 -8.74653e-015
lhumerus 66.4887 -1.41291 89.499
lradius 9.85678
lwrist -60.8266
lhand -14.5501 3.87511
lfingers 7.12502
lthumb 11.5987 33.5341
rfemur -23.271 -27.0673 -2.76496
rtibia 85.8694
rfoot -20.3266 25.3712
rtoes -4.7933
lfemur -32.045 13.1331 -12.0848
ltibia 82.9591
lfoot -21.1915 -32.9625
ltoes 9.12513
2904
root -2.89276 14.2662 -2.79871 322.221 -81.8199 -338.185
lowerback 34.8737 -3.69237 -0.545102
upperback 3.17252 -5.83075 -2.69412
thorax -14.4617 -2.79062 -0.080055
lowerneck 0.211809 1.83011 -4.10218
upperneck 1.20926 2.42934 0.554864
head 0.276996 1.19478 0.848951
rclavicle 2.30093e-014 1.70955e-014
rhumerus 65.0405 -1.13038 -101.017
rradius 7.44592
rwrist 69.03
rhand -17.2811 11.515
rfingers 7.12502
rthumb 8.96408 -18.2745
lclavicle 2.30093e-014 1.70955e-014
lhumerus 66.2754 -1.11809 90.1797
lradius 9.84885
lwrist -61.5073
lhand -14.4229 4.0454
lfingers 7.12502
lthumb 11.7213 33.6975
rfemur -22.471 -26.3963 -2.06272
rtibia 83.7028
rfoot -20.9198 24.2603
rtoes -5.45338
lfemur -31.0637 12.6236 -12.5181
ltibia 80.8835
lfoot -21.5327 -32.0864
ltoes 8.60504
2905
root -2.90369 14.4354 -2.79903 322.363 -81.778 -338.017
lowerback 34.3736 -3.66834 -0.60604
upperback 3.07693 -5.79891 -2.66139
thorax -14.3622 -2.77137 -0.0487936
lowerneck 0.27593 1.81984 -4.17597
upperneck 1.23026 2.41221 0.57483
head 0.272175 1.18546 0.867085
rclavicle 4.27387e-014 -9.93923e-015
rhumerus 64.78 -1.08874 -100.889
rradius 7.5446
rwrist 68.8994
rhand -17.1458 11.3947
rfingers 7.12502
rthumb 9.09465 -18.3892
lclavicle 4.27387e-014 -9.93923e-015
lhumerus 66.0178 -0.843245 90.8814
lradius 9.88417
lwrist -62.242
lhand -14.3017 4.16557
lfingers 7.12502
lthumb 11.8382 33.811
rfemur -21.5514 -25.7363 -1.40137
rtibia 81.4878
rfoot -21.3652 23.1898
rtoes -5.93589
lfemur -30.0181 12.0949 -12.9075
ltibia 78.7798
lfoot -21.9013 -31.1867
ltoes 7.98472
2906
root -2.91766 14.6039 -2.7993 322.401 -81.734 -337.719
lowerback 33.8226 -3.64203 -0.678025
upperback 2.97551 -5.76682 -2.63183
thorax -14.2455 -2.7518 -0.0176794
lowerneck 0.355822 1.8134 -4.28172
upperneck 1.27832 2.39919 0.596159
head 0.27257 1.17754 0.891114
rclavicle 1.8487e-014 -4.77083e-015
rhumerus 64.4748 -1.03268 -100.763
rradius 7.65487
rwrist 68.7996
rhand -17.0513 11.2425
rfingers 7.12502
rthumb 9.18585 -18.5374
lclavicle 1.8487e-014 -4.77083e-015
lhumerus 65.7372 -0.553341 91.5831
lradius 9.97066
lwrist -62.9482
lhand -14.194 4.18213
lfingers 7.12502
lthumb 11.9421 33.8215
rfemur -20.6478 -25.0885 -0.778313
rtibia 79.2521
rfoot -21.7722 22.1255
rtoes -6.4455
lfemur -28.9691 11.535 -13.3107
ltibia 76.6465
lfoot -22.1314 -30.2482
ltoes 7.50174
2907
root -2.93228 14.7691 -2.80003 322.527 -81.701 -337.535
lowerback 33.2944 -3.61368 -0.742756
upperback 2.8794 -5.72948 -2.59988
thorax -14.1293 -2.73047 0.0109236
lowerneck 0.424352 1.80148 -4.32817
upperneck 1.35292 2.37983 0.567097
head 0.28438 1.16605 0.889714
rclavicle -6.47541e-014 -2.62396e-014
rhumerus 64.1114 -1.0066 -100.632
rradius 7.80074
rwrist 68.6654
rhand -17.0922 11.1214
rfingers 7.12502
rthumb 9.14633 -18.6603
lclavicle -6.47541e-014 -2.62396e-014
lhumerus 65.4477 -0.266619 92.2768
lradius 10.0705
lwrist -63.6448
lhand -14.1386 4.19649
lfingers 7.12502
lthumb 11.9955 33.8328
rfemur -19.6799 -24.4353 -0.165805
rtibia 76.9813
rfoot -22.1001 21.0839
rtoes -6.74613
lfemur -27.9077 10.9783 -13.6754
ltibia 74.5061
lfoot -22.3009 -29.324
ltoes 6.96531
2908
root -2.9474 14.931 -2.80046 322.468 -81.6437 -337.149
lowerback 32.7364 -3.59639 -0.831076
upperback 2.78852 -5.71809 -2.59395
thorax -13.9929 -2.72083 0.0330909
lowerneck 0.455511 1.80292 -4.37061
upperneck 1.47039 2.3802 0.570403
head 0.314697 1.16397 0.898502
rclavicle 7.51903e-014 -1.55052e-014
rhumerus 63.7663 -0.955395 -100.54
rradius 7.92145
rwrist 68.595
rhand -17.2138 10.985
rfingers 7.12502
rthumb 9.02902 -18.8018
lclavicle 7.51903e-014 -1.55052e-014
lhumerus 65.1866 -0.0216191 92.7839
lradius 10.1556
lwrist -64.1217
lhand -14.1181 4.19009
lfingers 7.12502
lthumb 12.0153 33.8252
rfemur -18.7407 -23.7904 0.389461
rtibia 74.7127
rfoot -22.4073 20.0101
rtoes -7.21695
lfemur -26.8717 10.3966 -14.0851
ltibia 72.3595
lfoot -22.4225 -28.3254
ltoes 6.46711
2909
root -2.96275 15.0894 -2.80064 322.579 -81.6187 -336.943
lowerback 32.1971 -3.58457 -0.879593
upperback 2.69146 -5.69816 -2.5811
thorax -13.8713 -2.70898 0.0391094
lowerneck 0.429857 1.80289 -4.40734
upperneck 1.66504 2.38189 0.567384
head 0.378233 1.16131 0.905667
rclavicle 7.1811e-014 -9.74045e-015
rhumerus 63.432 -0.904169 -100.451
rradius 7.99046
rwrist 68.4957
rhand -17.4961 10.8825
rfingers 7.12502
rthumb 8.75659 -18.9159
lclavicle 7.1811e-014 -9.74045e-015
lhumerus 64.9346 0.107635 93.004
lradius 10.2332
lwrist -64.2645
lhand -14.107 4.23934
lfingers 7.12502
lthumb 12.0259 33.8738
rfemur -17.7935 -23.1286 0.967634
rtibia 72.4374
rfoot -22.664 18.9347
rtoes -7.55888
lfemur -25.8396 9.8043 -14.4423
ltibia 70.226
lfoot -22.5097 -27.3033
ltoes 5.92051
